<?xml version="1.0" encoding="UTF-8" standalone="no"?>
<svg
    width="32" height="32" viewBox="0 0 32 32" 
    xmlns="http://www.w3.org/2000/svg" 
    shape-rendering="crispEdges">
    <rect width="100%" height="100%" fill="#414154" />
    
    <!-- R -->
    <rect x="1" y="8" width="3" height="16" fill="#FF0000"/>
    <rect x="4" y="8" width="7" height="4" fill="#FF0000"/>
    <rect x="10" y="12" width="3" height="4" fill="#FF0000"/>
    <rect x="3" y="16" width="7" height="2" fill="#FF0000"/>
    <rect x="10" y="18" width="3" height="6" fill="#FF0000"/>
    
    <!-- C -->
    <rect x="15" y="2" width="10" height="3" fill="#34eb98"/>
    <rect x="22" y="4" width="5" height="2" fill="#34eb98"/>
    <rect x="14" y="4" width="3" height="24" fill="#34eb98"/>
    <rect x="15" y="26" width="10" height="3" fill="#34eb98"/>
    <rect x="22" y="25" width="5" height="2" fill="#34eb98"/>
    
    <!-- M -->
    <rect x="18" y="8" width="3" height="16" fill="#fadd00"/>
    <rect x="28" y="8" width="3" height="16" fill="#fadd00"/>
    <rect x="21" y="8" width="2" height="3" fill="#fadd00"/>
    <rect x="25" y="11" width="2" height="3" fill="#fadd00"/>
    <rect x="22" y="11" width="2" height="3" fill="#fadd00"/>
    <rect x="26" y="8" width="2" height="3" fill="#fadd00"/>
    <rect x="23" y="14" width="3" height="4" fill="#fadd00"/>
</svg>